<svg version="1.0" xmlns="http://www.w3.org/2000/svg"
 width="1024pt" height="1024pt" viewBox="0 0 1024 1024"
 preserveAspectRatio="xMidYMid meet">

<g transform="translate(0,1024) scale(0.1,-0.1)"
fill="currentColor" stroke="none">
<path d="M1731 9031 c-12 -8 -10 -12 12 -22 42 -19 32 -29 -30 -29 -32 0 -84
-4 -116 -10 -60 -10 -248 -95 -346 -157 -65 -41 -191 -142 -191 -152 0 -4 14
-6 30 -3 37 5 37 -1 1 -47 -46 -58 -89 -133 -120 -208 -31 -77 -68 -219 -59
-229 4 -3 16 0 29 6 20 11 21 10 14 -6 -43 -102 -90 -371 -72 -418 6 -15 10
-14 30 10 l24 27 7 -148 c7 -162 18 -226 49 -298 21 -50 36 -49 37 3 1 19 5
14 16 -20 25 -73 121 -262 152 -299 l29 -34 -5 59 c-2 32 -2 57 1 54 5 -6 97
-140 170 -248 26 -41 50 -72 52 -70 2 2 0 21 -5 43 -5 22 -7 41 -6 43 2 2 24
-23 49 -56 45 -57 134 -141 190 -177 15 -9 27 -20 27 -24 0 -4 -23 -49 -51
-100 -29 -50 -49 -94 -46 -97 3 -4 22 4 41 16 41 25 43 23 17 -28 -45 -88
-149 -362 -139 -368 5 -3 26 9 45 27 l36 34 -7 -35 c-3 -19 -34 -122 -67 -228
-34 -106 -59 -195 -56 -198 3 -4 18 4 34 16 34 27 39 14 19 -47 -24 -76 -66
-289 -66 -336 l1 -42 45 50 c28 30 44 42 40 30 -3 -11 -8 -56 -11 -100 -4 -44
-11 -109 -16 -145 -5 -36 -12 -107 -16 -157 -7 -105 2 -117 40 -52 32 52 37
38 37 -94 0 -90 4 -133 26 -262 7 -44 32 -136 38 -142 5 -5 10 22 21 109 3 26
10 50 15 53 14 9 42 -106 43 -175 0 -36 -6 -84 -13 -105 -22 -71 -102 -249
-129 -290 -41 -62 -43 -65 -32 -65 6 0 29 16 51 36 26 23 40 31 40 22 0 -17
-155 -261 -208 -326 -19 -24 -33 -45 -31 -47 3 -2 33 16 69 40 36 24 66 42 68
40 2 -2 -14 -30 -36 -62 -21 -32 -62 -95 -90 -141 -29 -46 -72 -110 -97 -142
-25 -32 -45 -61 -45 -64 0 -15 30 -2 78 34 28 22 52 37 52 34 0 -18 -173 -255
-258 -352 -68 -79 -60 -96 23 -47 32 20 60 33 63 30 4 -4 -151 -173 -296 -323
-24 -24 -41 -46 -39 -48 2 -3 33 9 68 25 34 17 65 28 68 25 3 -2 -18 -28 -46
-57 -81 -84 -333 -377 -333 -388 0 -12 1 -12 56 12 l48 20 -19 -23 c-11 -13
-45 -50 -75 -84 -161 -176 -209 -232 -203 -238 11 -11 38 -6 76 13 20 10 37
16 37 12 0 -3 -72 -83 -161 -176 -163 -173 -208 -225 -191 -225 32 0 220 84
274 121 43 31 42 23 -6 -45 -26 -35 -46 -66 -46 -70 0 -32 375 187 562 330 33
25 62 44 64 41 6 -6 -337 -338 -357 -345 -5 -2 -9 -15 -9 -29 0 -21 3 -23 23
-18 99 30 370 173 550 291 54 35 100 64 103 64 5 0 -194 -166 -281 -234 -64
-50 -125 -108 -125 -118 0 -15 26 -8 125 38 55 25 115 52 133 60 l34 15 -46
-56 c-25 -31 -46 -61 -46 -67 0 -5 61 22 135 62 112 59 430 208 485 226 30 11
-54 -55 -167 -131 -64 -43 -131 -91 -149 -107 -96 -84 64 -53 296 58 l115 55
-77 -78 c-43 -43 -78 -82 -78 -86 0 -4 7 -7 17 -7 19 0 385 187 446 228 55 37
67 44 67 38 0 -6 3 -2 -154 -164 -71 -72 -127 -134 -124 -137 8 -9 354 137
406 171 13 9 26 14 28 12 2 -3 -31 -32 -74 -66 -90 -71 -118 -99 -108 -109 9
-10 122 31 209 74 38 19 74 32 80 30 6 -2 -16 -24 -49 -49 -80 -62 -119 -104
-104 -113 12 -8 75 -1 155 16 28 6 105 38 173 70 67 31 122 55 122 52 0 -3
-32 -36 -70 -72 -38 -37 -70 -72 -70 -78 0 -21 231 11 358 49 114 34 166 47
169 45 1 -2 -19 -20 -45 -39 -26 -20 -63 -53 -82 -72 l-34 -36 79 6 c103 7
250 37 373 76 53 17 100 32 104 35 5 2 8 1 8 -4 0 -4 -24 -20 -53 -36 -28 -15
-65 -39 -82 -53 l-30 -25 73 5 c41 4 81 10 90 15 19 10 122 41 122 37 0 -1
-20 -17 -45 -36 -25 -19 -45 -38 -45 -43 0 -23 186 11 315 58 22 7 17 2 -56
-59 -17 -15 -29 -29 -26 -33 10 -10 316 33 522 73 l30 6 -25 -17 c-38 -27
-100 -88 -100 -98 0 -17 121 2 273 43 81 22 151 40 155 40 4 0 -24 -19 -61
-41 -38 -23 -66 -43 -63 -46 8 -9 147 18 248 48 106 32 133 34 174 19 63 -24
202 -57 284 -67 l55 -6 -18 24 c-41 58 -40 59 16 34 58 -27 237 -67 237 -53 0
5 -19 27 -42 50 -24 22 -35 37 -25 34 69 -23 205 -54 291 -66 38 -6 79 -13 92
-16 13 -4 24 -2 24 4 0 12 -117 122 -131 122 -5 0 -9 5 -9 11 0 5 4 8 8 5 12
-7 153 -44 236 -62 236 -50 406 -73 406 -55 0 12 -77 64 -148 100 -24 12 -42
24 -40 26 2 2 65 -12 141 -30 132 -33 268 -57 276 -49 8 7 -25 38 -76 71 -55
35 -81 63 -47 49 110 -45 362 -99 514 -111 98 -8 98 -5 -1 56 -35 21 -56 39
-47 39 30 0 176 -32 216 -48 27 -10 -24 50 -62 73 -42 26 -86 61 -86 69 0 3
37 -8 83 -25 154 -58 272 -98 307 -104 19 -3 50 -8 68 -11 46 -9 41 11 -15 62
-26 24 -44 46 -40 50 4 4 33 -5 64 -19 107 -47 263 -90 263 -72 0 13 -59 91
-114 152 -53 58 -76 94 -39 60 53 -47 318 -172 352 -165 12 3 0 20 -43 66 -56
59 -64 79 -19 47 11 -8 73 -35 138 -60 109 -42 155 -54 155 -39 0 3 -48 57
-106 120 -59 63 -103 114 -99 114 4 0 28 -15 54 -34 111 -82 354 -199 401
-194 l29 3 -29 47 c-17 27 -28 48 -27 48 2 0 42 -23 88 -50 142 -86 174 -81
82 13 -72 74 -163 184 -163 198 0 5 9 0 21 -12 60 -60 442 -269 492 -269 26 0
12 21 -88 127 -48 51 -84 93 -81 93 3 0 36 -19 73 -42 101 -61 322 -170 340
-166 10 2 -15 31 -73 84 -75 69 -204 225 -204 248 0 4 21 -14 48 -39 113 -109
315 -219 466 -255 140 -32 141 -31 55 58 -137 142 -136 139 -44 94 157 -77
456 -184 472 -169 6 7 -70 106 -151 196 -37 41 -65 76 -63 78 3 2 17 -1 32 -7
15 -6 36 -8 47 -4 17 5 -6 32 -141 169 -89 89 -161 165 -161 169 0 3 23 -5 51
-20 108 -54 75 2 -116 196 -141 144 -185 194 -185 213 0 3 18 -3 40 -14 21
-10 46 -19 54 -19 9 0 -38 64 -112 153 -70 83 -138 166 -150 184 l-23 32 56
-25 c31 -15 59 -24 61 -21 3 3 -40 58 -96 122 -118 137 -193 242 -164 230 93
-38 99 -34 49 37 -106 153 -226 341 -221 346 4 3 24 -5 47 -17 22 -13 42 -21
44 -20 2 2 -17 36 -43 74 -56 86 -173 298 -167 303 2 2 22 -6 44 -19 23 -12
44 -20 47 -16 4 3 -21 66 -54 139 -99 218 -106 242 -109 403 l-2 140 18 -68
c11 -38 21 -71 24 -73 3 -3 11 12 18 33 9 25 13 98 14 221 0 166 1 181 15 162
35 -50 69 -84 76 -77 9 8 -12 306 -26 377 -5 25 -9 65 -10 89 l0 44 21 -19
c12 -10 30 -32 40 -49 l19 -30 0 50 c0 62 -48 304 -86 438 -3 9 15 -4 40 -30
43 -46 46 -47 46 -22 0 22 -48 197 -109 399 l-20 65 42 -48 c23 -26 45 -47 48
-47 24 0 -112 388 -153 437 -25 30 1 20 45 -19 27 -22 50 -38 53 -36 2 3 -10
36 -27 74 -17 38 -44 112 -60 164 -33 110 -38 96 75 215 42 44 91 100 109 124
30 40 32 42 35 20 2 -13 7 -28 11 -32 4 -4 39 45 77 110 l69 118 5 -40 5 -39
38 44 c41 47 134 227 166 320 l19 55 7 -37 c4 -21 11 -38 15 -38 8 0 39 94 49
148 3 21 6 101 6 180 0 139 7 165 30 114 18 -41 26 -26 40 70 10 65 -15 238
-51 361 -3 9 -1 17 5 17 6 0 11 -7 11 -15 0 -8 5 -15 10 -15 6 0 10 15 10 33
0 92 -75 270 -173 414 -52 75 -55 82 -35 85 19 3 17 7 -24 49 -60 60 -201 131
-304 154 -114 25 -113 25 -74 41 31 13 33 16 17 25 -28 16 -215 27 -291 18
-38 -5 -71 -7 -73 -5 -3 2 26 14 64 26 103 34 102 43 -2 35 -97 -7 -266 -45
-318 -71 l-32 -16 33 34 c17 19 32 37 32 41 0 19 -238 -95 -290 -140 -29 -24
-54 -33 -32 -11 7 7 12 20 12 30 0 18 -2 18 -38 -1 -52 -26 -134 -91 -209
-165 -35 -33 -63 -56 -63 -50 0 5 5 15 12 22 6 6 9 14 6 18 -3 3 -31 -17 -62
-45 -75 -68 -261 -191 -311 -206 -53 -16 -278 5 -301 28 -3 2 23 10 57 16 39
8 58 16 52 22 -8 8 -91 25 -223 45 l-35 6 23 18 c12 10 22 20 22 23 0 2 -35 7
-77 11 -43 4 -87 9 -98 11 -11 1 -38 3 -60 5 l-40 2 45 12 c43 11 52 27 20 33
-8 2 -82 6 -163 10 -145 6 -166 13 -80 28 73 12 57 23 -42 30 -103 8 -221 1
-327 -19 -95 -18 -91 -9 17 35 l30 13 -30 4 c-63 8 -324 -44 -372 -74 -37 -23
-26 -2 14 29 l36 27 -39 0 c-76 0 -237 -51 -440 -140 l-51 -23 -94 40 c-52 22
-130 52 -174 66 -84 28 -255 68 -255 60 0 -10 24 -49 43 -70 23 -26 13 -31
-13 -8 -10 9 -41 24 -71 34 -61 22 -277 56 -287 46 -4 -4 7 -18 23 -31 35 -28
35 -28 -75 -9 -120 21 -360 18 -360 -4 0 -4 21 -13 48 -21 l47 -14 -124 -7
c-69 -4 -136 -11 -150 -14 l-26 -7 30 -12 c29 -12 27 -13 -45 -20 -108 -9
-210 -28 -210 -38 0 -4 15 -8 34 -8 19 0 38 -4 41 -10 3 -6 -4 -10 -17 -10
-36 0 -156 -28 -207 -47 l-45 -17 28 -11 c26 -11 22 -13 -53 -30 -143 -32
-228 2 -386 155 -35 33 -66 60 -69 60 -12 0 -5 -21 20 -61 14 -23 24 -42 22
-44 -2 -2 -26 18 -54 43 -182 165 -225 203 -274 239 -83 59 -88 62 -67 30 24
-37 21 -41 -10 -19 -72 50 -288 142 -336 142 -6 0 2 -14 19 -32 23 -25 25 -30
9 -24 -73 28 -146 47 -194 51 -31 3 -76 8 -101 10 -25 3 -52 1 -59 -4z m354
-211 c52 -26 103 -68 209 -170 97 -93 142 -130 144 -118 5 27 -53 140 -98 191
-23 26 -40 50 -37 53 9 10 190 -171 246 -246 107 -145 214 -238 294 -256 30
-7 27 -9 -53 -34 l-85 -28 50 -1 c48 -2 49 -2 25 -15 -14 -7 -65 -23 -115 -36
-49 -12 -94 -25 -98 -30 -9 -8 45 -30 74 -30 11 0 19 -5 19 -11 0 -8 -17 -10
-55 -6 -69 7 -205 72 -221 105 -7 13 -16 28 -22 34 -14 14 11 -69 32 -110 50
-96 -39 -24 -133 108 -110 154 -277 360 -334 412 -78 72 -146 114 -202 126
-46 10 -78 6 -46 -6 18 -6 91 -72 91 -82 0 -4 -17 -4 -37 1 -21 5 -69 8 -108
8 l-70 0 53 -24 c28 -13 52 -27 52 -30 0 -3 -48 -5 -107 -4 -108 2 -153 -4
-153 -22 0 -5 13 -9 29 -9 40 0 199 -82 236 -121 30 -32 30 -32 5 -25 -116 32
-240 46 -240 29 0 -5 31 -21 69 -36 37 -16 83 -40 100 -55 l33 -27 -102 3
c-117 4 -208 -5 -175 -19 11 -4 32 -8 47 -8 43 -1 130 -38 184 -77 34 -25 41
-34 24 -29 -89 24 -223 21 -305 -8 -37 -14 -38 -15 -15 -20 14 -3 49 -9 79
-12 63 -7 140 -31 160 -50 11 -11 4 -13 -45 -14 -78 0 -155 -16 -212 -43 l-47
-21 104 -13 c110 -14 181 -33 246 -68 l40 -21 -105 -6 c-62 -3 -117 -12 -134
-21 l-28 -14 54 -12 c66 -15 148 -53 168 -77 14 -17 13 -18 -4 -12 -31 12
-132 20 -160 13 -37 -9 -32 -21 17 -46 46 -24 230 -160 224 -166 -2 -2 -23 3
-48 11 -93 31 -209 35 -209 6 0 -5 17 -17 38 -26 20 -10 57 -32 83 -49 49 -34
209 -169 204 -174 -1 -1 -13 2 -26 7 -59 23 -200 61 -230 61 l-33 0 39 -41
c45 -47 170 -131 266 -179 71 -36 74 -38 68 -45 -3 -2 -21 0 -40 6 -46 14
-219 47 -219 42 0 -15 86 -115 108 -127 16 -8 34 -22 41 -30 35 -42 -86 4
-166 62 -22 17 -69 68 -104 114 -34 46 -79 102 -100 125 -21 22 -59 70 -85
105 -25 34 -44 53 -40 41 4 -12 11 -44 15 -72 4 -29 27 -83 54 -131 26 -46 45
-85 43 -87 -12 -12 -79 89 -93 140 -9 31 -20 57 -23 57 -29 0 -100 232 -100
327 0 65 -9 62 -39 -12 l-20 -50 0 39 c-1 22 11 88 25 147 14 59 24 127 22
150 l-3 44 -30 -48 c-16 -27 -36 -56 -43 -65 -21 -27 -5 39 30 122 16 39 41
102 54 140 25 73 26 73 -31 50 -16 -6 -18 -5 -9 7 6 8 26 54 45 104 68 180
203 341 342 410 118 58 156 64 383 62 l200 -2 69 -35z m6365 21 c-24 -19 -23
-19 120 -18 125 1 153 -2 202 -20 66 -25 159 -86 204 -134 63 -69 160 -235
194 -334 28 -82 27 -89 -11 -70 -17 9 -33 15 -35 13 -3 -4 79 -257 102 -312 6
-15 -3 -12 -33 13 -23 18 -46 31 -51 27 -5 -3 5 -68 24 -153 19 -81 32 -152
30 -158 -1 -5 -13 10 -25 33 -12 24 -24 42 -27 40 -2 -3 -9 -54 -14 -114 -10
-100 -25 -197 -37 -234 -3 -9 -10 1 -17 24 -12 43 -36 61 -36 27 0 -25 -66
-223 -91 -273 -10 -20 -23 -40 -29 -43 -11 -7 -9 6 10 83 5 17 5 32 2 31 -4
-1 -43 -42 -88 -92 -44 -51 -105 -112 -134 -136 -51 -41 -56 -43 -101 -38 -26
3 -63 14 -81 23 -43 22 -128 84 -128 93 0 4 30 -8 68 -26 37 -18 91 -36 121
-40 53 -6 53 -6 40 16 -8 12 -45 48 -84 80 -38 31 -95 86 -125 121 -45 52 -50
61 -30 55 41 -12 151 -70 208 -108 45 -31 52 -33 52 -17 0 10 -29 57 -65 104
-36 47 -65 87 -65 90 0 2 21 -1 48 -8 59 -16 139 -57 181 -91 37 -32 37 -31
11 30 -21 49 -120 160 -151 170 -11 4 -17 11 -13 16 10 17 84 -1 161 -39 40
-20 75 -33 79 -29 20 20 -104 162 -163 188 -47 20 -41 27 20 18 73 -10 106
-19 150 -41 40 -20 47 -12 21 27 -15 24 -116 94 -176 125 -16 7 -28 17 -28 21
0 15 104 2 168 -21 35 -12 66 -20 69 -16 3 3 -22 32 -55 66 -60 60 -111 90
-152 90 -13 0 -19 4 -14 11 10 17 105 4 156 -20 24 -12 62 -33 85 -47 23 -14
44 -20 47 -15 9 13 -98 126 -168 178 l-58 43 36 0 c40 0 161 -43 188 -66 28
-26 39 -12 20 26 -27 56 -106 128 -178 162 -82 38 -72 48 50 48 l89 0 -23 25
c-33 35 -175 105 -214 105 -17 0 -37 4 -45 9 -40 26 160 39 222 16 9 -4 17 -3
17 3 0 12 -74 44 -154 67 -38 11 -81 16 -122 13 -34 -2 -60 0 -58 4 10 15 131
46 212 53 45 4 82 11 82 15 0 5 -26 19 -57 31 -61 23 -202 32 -270 17 -48 -11
-41 5 27 59 86 69 48 69 -98 0 -116 -55 -172 -74 -172 -60 0 4 21 29 47 55 26
26 42 48 36 48 -6 0 -47 -26 -90 -58 -77 -58 -216 -201 -386 -399 -67 -79 -99
-107 -142 -128 -61 -30 -128 -35 -189 -15 -37 12 -49 30 -20 30 19 0 94 40 94
51 0 8 -62 19 -112 19 -49 0 -166 47 -179 71 -9 17 -6 19 26 19 73 0 142 51
252 185 81 98 251 275 265 275 4 0 -21 -47 -57 -105 -36 -58 -65 -109 -65
-113 0 -3 39 32 88 80 121 119 247 200 377 241 60 19 90 24 175 25 l65 2 -25
-19z m-2426 -230 c-47 -34 -79 -69 -71 -77 3 -3 30 3 61 15 50 18 204 61 222
61 4 0 -9 -10 -27 -23 -48 -32 -79 -60 -79 -70 0 -4 8 -4 18 2 49 25 177 44
266 37 109 -8 156 -16 156 -26 0 -4 -33 -15 -72 -25 -82 -19 -116 -34 -83 -35
158 -4 283 -24 455 -71 102 -28 190 -52 195 -54 6 -1 -58 -2 -142 -2 -137 1
-176 -3 -161 -18 2 -3 61 -19 129 -36 68 -18 162 -48 209 -69 160 -70 230
-104 230 -109 0 -3 -42 -5 -92 -4 l-93 3 120 -45 c66 -24 149 -59 185 -77 69
-36 233 -139 228 -143 -2 -2 -52 10 -113 26 -60 16 -114 27 -119 26 -6 -2 19
-21 55 -42 141 -85 237 -156 302 -223 37 -38 67 -72 67 -75 0 -3 -28 11 -63
32 -79 48 -183 101 -199 101 -6 0 60 -71 148 -157 136 -134 274 -295 274 -318
0 -4 -21 11 -48 33 -59 49 -273 195 -278 189 -2 -2 41 -49 97 -103 86 -84 299
-334 299 -350 0 -3 -17 7 -37 24 -37 28 -224 159 -253 177 -8 5 -3 -7 11 -26
14 -18 70 -97 124 -174 54 -77 119 -167 145 -200 63 -79 130 -176 130 -187 0
-4 -51 45 -112 109 -105 108 -217 203 -240 203 -5 0 10 -24 35 -52 107 -128
448 -631 435 -643 -2 -2 -23 20 -45 49 -42 53 -163 165 -163 150 0 -13 87
-169 143 -255 81 -125 123 -203 106 -197 -8 2 -61 56 -119 119 -58 64 -107
111 -108 107 -4 -10 52 -123 134 -268 55 -99 148 -300 141 -306 -2 -2 -54 55
-114 128 -122 146 -189 215 -199 205 -4 -4 35 -75 87 -159 113 -184 195 -345
231 -453 14 -44 25 -81 23 -83 -1 -2 -18 23 -36 55 -87 154 -268 399 -269 364
0 -8 38 -98 85 -201 72 -160 125 -307 125 -345 0 -5 -30 42 -65 105 -58 102
-182 277 -190 268 -2 -2 12 -35 30 -73 71 -146 145 -380 164 -515 26 -186 21
-212 -15 -80 -9 36 -31 99 -47 140 -33 80 -136 264 -144 256 -3 -3 2 -33 11
-68 35 -142 66 -366 66 -488 0 -73 -10 -70 -30 10 -29 123 -126 388 -136 377
-3 -2 4 -38 15 -78 27 -97 51 -289 50 -392 l0 -82 -36 128 c-20 70 -39 127
-42 127 -3 0 -6 -78 -7 -173 -1 -146 -5 -191 -28 -296 -14 -69 -28 -127 -31
-129 -3 -3 -5 33 -5 79 0 118 -17 248 -47 359 -13 52 -28 101 -33 109 -4 7
-10 -51 -13 -130 -4 -79 -13 -178 -20 -219 l-13 -75 -11 55 c-6 30 -17 84 -23
120 -18 93 -30 97 -31 10 -1 -41 -3 -88 -5 -105 -2 -16 -5 -48 -8 -70 -9 -82
-29 -185 -36 -185 -4 0 -15 48 -24 106 -10 58 -24 125 -30 148 -12 39 -13 37
-14 -59 0 -55 -6 -125 -11 -155 -16 -82 -73 -280 -81 -280 -3 0 -3 24 1 53 19
133 2 304 -47 472 -25 87 -52 108 -32 25 9 -41 5 -218 -7 -278 -2 -13 -9 -60
-16 -105 -11 -85 -68 -337 -75 -337 -2 0 -1 98 1 218 4 190 3 227 -14 297
l-19 80 -1 -110 c-1 -134 -29 -291 -78 -435 -19 -58 -39 -109 -43 -114 -5 -4
-6 91 -3 212 5 193 4 222 -11 243 -16 23 -16 23 -16 -22 0 -158 -59 -389 -132
-519 -49 -86 -58 -77 -34 33 8 40 17 97 20 127 l5 55 -16 -40 c-29 -69 -190
-389 -207 -410 -21 -28 -20 -18 10 61 33 89 80 282 89 370 4 38 9 76 11 84 1
8 3 39 3 68 2 92 18 47 25 -68 4 -61 10 -119 14 -128 9 -25 37 142 68 413 6
55 8 57 15 30 5 -16 12 -72 15 -124 8 -108 22 -107 44 2 8 34 14 64 15 67 10
37 19 115 24 209 l6 116 19 -115 c10 -63 22 -121 26 -129 28 -52 51 345 28
489 -22 147 -83 286 -194 444 -45 65 -131 152 -141 142 -3 -3 12 -31 33 -63
88 -133 206 -433 220 -561 l5 -47 -29 70 c-64 157 -148 292 -219 355 -26 22
-48 38 -50 36 -3 -2 8 -24 23 -47 83 -131 135 -325 134 -494 l-1 -50 -43 105
c-67 164 -129 273 -199 348 -40 42 -67 44 -37 2 41 -58 109 -219 140 -331 25
-89 33 -142 37 -244 3 -71 2 -127 -2 -123 -3 3 -18 50 -31 103 -32 125 -66
209 -162 402 -99 197 -147 325 -168 443 -8 51 -13 94 -11 96 2 3 27 -28 55
-68 28 -40 60 -84 71 -98 34 -41 26 -1 -20 106 -58 136 -108 294 -93 294 7 0
38 -36 68 -80 31 -44 61 -80 68 -80 16 0 4 57 -27 132 -15 34 -42 103 -60 152
l-33 88 79 -82 c44 -45 82 -80 85 -77 15 15 -68 202 -136 308 -22 34 -38 64
-35 67 2 3 22 -11 43 -30 46 -42 162 -122 168 -116 2 3 -27 49 -65 104 -68 98
-161 258 -161 276 0 5 37 -25 83 -67 80 -74 227 -168 227 -146 0 6 -33 46 -73
89 -78 82 -207 236 -207 246 0 13 23 5 53 -18 60 -46 220 -135 288 -161 108
-42 116 -28 22 38 -80 56 -198 158 -257 221 -54 60 -99 117 -94 122 12 12 101
-40 197 -115 105 -83 255 -165 321 -176 l35 -6 -30 26 c-30 26 -336 234 -489
332 -93 59 -166 135 -200 208 l-24 50 65 11 66 10 46 -46 c54 -54 99 -86 108
-76 8 8 -72 91 -109 113 l-27 17 46 50 c25 28 51 55 59 59 9 5 32 -6 66 -31
29 -21 105 -66 168 -99 119 -63 133 -67 263 -64 46 1 49 17 5 26 -35 7 -243
87 -292 112 -61 31 -156 140 -156 178 0 13 67 -8 149 -46 78 -36 151 -51 151
-30 0 5 -21 22 -47 38 l-48 28 44 5 45 5 -55 49 c-44 40 -49 48 -29 44 14 -3
41 -9 60 -13 l35 -8 -40 42 c-35 36 -90 68 -245 140 -21 9 -11 11 55 7 71 -5
78 -4 61 9 -10 8 -50 26 -88 41 -54 20 -81 25 -120 22 l-50 -5 47 29 c26 16
59 34 73 40 l27 11 -33 7 c-35 8 -169 -3 -217 -18 -16 -6 -64 -23 -105 -40
-96 -38 -120 -45 -120 -35 0 4 23 24 51 43 53 36 124 108 116 117 -7 7 -244
-123 -280 -153 -16 -14 -32 -23 -34 -20 -10 9 66 133 113 185 25 28 43 51 39
51 -17 0 -68 -35 -155 -104 -52 -42 -98 -76 -102 -76 -16 0 -7 49 18 96 28 52
75 116 133 177 19 20 29 37 23 37 -33 0 -96 -47 -162 -120 -67 -74 -100 -94
-115 -71 -11 18 37 122 82 177 25 30 42 58 39 61 -10 10 -82 -44 -119 -89 -20
-24 -51 -75 -68 -114 -18 -38 -34 -71 -36 -73 -2 -3 -18 9 -36 25 -132 123
-301 187 -534 203 -144 10 -269 2 -378 -25 -89 -22 -253 -105 -307 -156 l-47
-44 -45 45 c-25 25 -48 42 -52 39 -3 -4 10 -34 31 -67 l36 -61 -27 -25 c-15
-14 -33 -25 -41 -25 -20 0 -66 33 -142 102 -35 32 -66 57 -67 55 -2 -2 13 -34
32 -71 l36 -68 -74 76 c-71 72 -139 115 -183 116 -15 0 -3 -17 48 -68 105
-106 89 -115 -73 -42 -150 68 -168 65 -58 -7 85 -57 71 -67 -34 -25 -64 26
-178 50 -178 38 0 -2 24 -16 53 -31 111 -58 142 -100 40 -55 -75 33 -122 40
-197 29 -64 -9 -189 -51 -211 -70 -5 -5 23 -6 68 -3 44 4 77 3 77 -2 0 -5 -41
-26 -90 -47 -86 -37 -169 -97 -191 -139 -18 -33 -4 -31 56 7 31 20 76 45 98
56 82 37 88 15 8 -26 -32 -15 -86 -64 -155 -137 -118 -125 -121 -153 -8 -70
81 59 112 76 120 67 4 -4 -30 -43 -76 -86 -46 -43 -77 -79 -68 -79 43 0 270
94 309 128 18 16 18 15 11 -13 -11 -46 -29 -77 -66 -112 -32 -30 -130 -83
-155 -83 -32 0 -163 -73 -152 -84 6 -7 103 18 216 55 72 24 103 40 142 75 27
24 51 44 54 44 3 0 30 -24 59 -54 74 -75 123 -87 242 -60 l28 7 -56 -110
c-115 -225 -252 -400 -418 -533 -95 -76 -148 -133 -135 -146 12 -12 204 119
315 215 45 39 82 65 82 57 0 -25 -86 -129 -195 -236 -107 -105 -195 -212 -195
-238 0 -17 180 121 284 218 64 60 76 68 59 40 -11 -19 -48 -81 -82 -138 -34
-57 -75 -131 -93 -165 -35 -71 -70 -167 -60 -167 4 1 27 33 52 71 41 64 206
236 217 226 7 -7 -29 -89 -63 -142 -40 -63 -127 -236 -121 -241 2 -2 41 36 87
86 45 50 84 89 87 86 2 -2 -9 -30 -25 -62 -32 -65 -75 -184 -69 -191 3 -2 31
28 63 66 57 68 83 87 51 37 -19 -28 -82 -246 -92 -316 l-6 -45 42 70 c23 39
50 89 60 113 10 23 20 42 22 42 2 0 2 -69 1 -152 -2 -177 -17 -261 -79 -463
-71 -230 -95 -318 -95 -349 0 -47 148 255 194 397 21 65 43 120 49 124 6 4 8
-3 3 -18 -4 -13 -14 -67 -22 -119 -24 -157 -41 -207 -130 -389 -86 -176 -126
-280 -138 -361 -4 -25 -10 -58 -13 -75 l-7 -30 -7 30 c-9 41 -9 208 0 275 5
30 4 65 0 78 -5 13 -10 56 -11 97 -2 40 -6 68 -9 63 -4 -6 -24 -71 -45 -144
-21 -74 -41 -134 -44 -134 -6 0 5 207 15 270 4 25 20 114 36 199 16 85 28 159
26 165 -5 14 -52 -68 -87 -152 -47 -110 -96 -332 -92 -409 1 -13 -2 -23 -7
-23 -13 0 -23 168 -16 257 12 140 50 289 121 475 19 50 33 96 31 101 -5 17
-84 -86 -126 -164 -46 -86 -99 -249 -108 -332 -8 -80 -22 -59 -30 44 -6 89 31
372 61 474 9 27 14 50 12 52 -10 10 -105 -164 -137 -252 l-18 -50 1 55 c2 95
46 221 165 478 24 50 10 48 -34 -5 -94 -113 -181 -295 -212 -443 -25 -121 -23
-313 4 -447 18 -92 35 -122 35 -62 0 25 37 198 44 206 2 2 2 -90 2 -205 -1
-169 2 -223 18 -292 21 -96 35 -130 36 -90 5 185 20 323 20 189 1 -106 57
-429 82 -469 9 -15 2 173 -9 218 -3 12 -1 22 4 22 6 0 22 -55 37 -122 43 -200
105 -522 101 -526 -8 -9 -78 100 -124 193 -42 86 -73 170 -129 345 -9 28 -10
10 -6 -95 5 -142 13 -241 20 -265 2 -9 -2 -7 -11 5 -9 11 -31 70 -51 131 -32
105 -48 165 -92 359 l-18 80 -13 -74 c-14 -76 -11 -310 4 -343 4 -11 3 -18 -3
-18 -15 0 -56 112 -81 217 -31 132 -37 286 -17 401 21 123 20 136 -9 77 -64
-129 -90 -250 -82 -373 4 -48 9 -98 12 -112 3 -14 -8 2 -24 35 -39 81 -55 190
-49 350 4 112 10 144 37 228 18 55 30 101 27 104 -8 8 -45 -57 -57 -100 -15
-57 -49 -267 -49 -309 0 -21 -4 -38 -10 -38 -16 0 -25 71 -25 203 0 70 -2 127
-6 127 -7 0 -18 -27 -39 -90 -15 -47 -50 -265 -50 -315 -1 -57 -15 -28 -35 74
-28 136 -14 364 31 520 5 18 4 22 -6 16 -36 -22 -122 -298 -137 -437 -3 -34
-9 -54 -13 -47 -14 25 -30 181 -30 285 0 133 19 225 96 454 3 8 -6 2 -20 -15
-60 -70 -123 -224 -162 -398 -24 -106 -39 -79 -39 73 1 149 51 383 113 524 26
58 27 62 6 45 -27 -23 -94 -127 -131 -205 -19 -41 -36 -74 -38 -74 -3 0 0 20
20 129 20 110 19 123 -5 86 -27 -42 -114 -298 -183 -540 -14 -47 3 227 18 295
26 117 82 284 141 419 30 68 53 128 51 134 -12 36 -202 -305 -243 -438 -16
-51 -36 -77 -29 -37 2 9 9 46 15 82 18 111 72 259 148 409 40 79 70 146 68
148 -2 2 -24 -19 -49 -48 -39 -45 -95 -133 -226 -359 l-32 -55 6 65 c14 132
73 339 144 504 12 27 20 51 17 53 -6 6 -81 -89 -120 -151 -17 -26 -32 -43 -34
-37 -10 30 92 256 192 425 25 41 41 78 36 81 -11 7 -107 -99 -177 -195 -31
-43 -59 -77 -61 -75 -9 9 75 205 156 364 45 90 81 165 79 167 -1 2 -40 -32
-85 -75 -45 -43 -82 -75 -82 -71 0 5 16 37 36 72 30 52 149 281 163 311 9 23
-52 -24 -122 -91 -42 -42 -77 -72 -77 -69 0 11 47 82 121 182 98 134 181 256
176 261 -2 2 -47 -32 -100 -76 -53 -44 -97 -78 -97 -75 0 11 121 186 199 287
72 93 160 185 324 337 32 29 56 55 54 58 -8 7 -87 -36 -152 -83 -73 -52 -188
-154 -240 -212 -21 -23 -39 -41 -42 -39 -6 7 66 157 98 203 46 67 205 230 278
285 114 87 1 43 -127 -48 -41 -30 -77 -52 -79 -49 -9 8 188 215 247 261 30 23
89 63 130 89 65 41 70 47 40 41 -19 -4 -62 -18 -95 -31 -32 -13 -61 -21 -64
-19 -14 15 216 160 369 233 74 36 130 66 124 69 -6 2 -40 -3 -77 -11 -37 -7
-67 -10 -67 -6 0 12 103 78 163 104 28 13 105 40 170 61 155 50 155 70 -2 45
-35 -6 -65 -9 -68 -7 -2 2 38 19 89 37 51 18 140 52 198 76 130 52 202 66 355
66 106 0 117 1 100 14 -11 8 -36 17 -57 20 -58 10 -34 24 40 24 57 0 129 -14
237 -47 18 -5 18 -4 6 11 -18 21 -103 66 -128 67 -17 0 -16 1 1 8 36 14 195
-15 303 -56 10 -4 -7 17 -37 46 l-55 52 55 -7 c30 -3 89 -19 129 -35 41 -15
77 -26 80 -24 2 3 -6 16 -19 30 -13 14 -19 25 -14 25 33 0 214 -55 278 -84 84
-38 94 -30 27 22 -23 17 -37 32 -30 32 24 0 214 -92 260 -125 25 -19 49 -35
52 -35 3 0 -5 20 -19 45 -17 32 -20 45 -10 45 7 0 35 -20 62 -45 26 -25 50
-45 53 -45 3 1 23 18 45 39 21 22 62 52 90 67 l50 28 -35 -50 c-65 -90 -62
-96 22 -33 80 60 133 89 189 104 l50 13 -25 -30 c-34 -40 -23 -53 21 -23 40
27 73 39 180 65 l76 18 -53 -54 c-29 -30 -48 -54 -42 -54 6 0 44 16 85 35 64
30 233 82 277 84 8 1 -4 -12 -25 -28z m-3389 -62 c11 -17 -1 -21 -15 -4 -8 9
-8 15 -2 15 6 0 14 -5 17 -11z m-532 -538 c9 -21 45 -70 82 -107 36 -38 65
-70 65 -72 0 -2 -14 5 -31 15 -43 25 -94 83 -124 142 -28 55 -29 61 -16 61 5
0 16 -18 24 -39z m6111 -212 c-16 -17 -38 -36 -49 -42 -23 -12 -155 -26 -155
-16 0 3 30 13 66 22 37 9 85 28 108 41 56 33 65 32 30 -5z m-6070 -69 c54 -32
47 -41 -10 -14 -36 17 -84 67 -84 87 0 7 10 -1 21 -16 12 -15 44 -41 73 -57z
m6021 -61 c-41 -19 -101 -23 -145 -9 -21 7 -18 8 20 10 25 1 65 5 90 9 70 13
78 11 35 -10z m-2831 -51 c28 -6 79 -23 113 -38 209 -95 315 -249 315 -461 0
-48 -4 -95 -10 -105 -8 -15 -10 -5 -11 42 0 138 -46 239 -157 344 -40 38 -96
81 -124 95 -143 73 -380 91 -543 41 -176 -53 -289 -132 -350 -245 -56 -102
-77 -245 -51 -346 3 -15 1 -13 -10 5 -8 14 -19 52 -25 84 -51 273 85 488 359
568 36 10 94 21 130 25 36 3 67 8 70 10 8 8 237 -7 294 -19z m107 -264 c31
-16 73 -69 99 -126 30 -67 23 -79 -10 -18 -37 66 -103 127 -149 136 -103 20
-174 -120 -137 -266 42 -164 155 -272 299 -287 139 -14 230 58 260 208 7 35
17 63 22 62 6 -1 16 -24 24 -51 26 -97 -27 -199 -129 -246 -36 -17 -65 -21
-145 -21 -89 0 -107 3 -163 29 -137 63 -217 216 -207 394 7 114 36 175 98 202
41 19 80 14 138 -16z m-465 1 c45 -29 59 -78 58 -200 -1 -93 -5 -120 -27 -176
-49 -129 -105 -191 -207 -231 -79 -31 -237 -32 -295 -1 -50 26 -80 58 -100
105 -17 43 -20 140 -5 169 10 17 13 18 26 5 8 -9 18 -38 21 -65 8 -70 39 -120
92 -148 36 -19 59 -23 131 -23 107 0 168 27 234 103 83 93 127 270 92 362 -31
79 -79 101 -154 69 -66 -27 -108 -80 -148 -183 l-14 -36 6 35 c7 44 55 147 86
183 45 54 146 70 204 32z m981 -152 c142 -142 211 -259 287 -486 54 -161 128
-539 151 -772 2 -27 8 -80 11 -117 4 -37 2 -116 -4 -175 -7 -59 -14 -142 -17
-183 -8 -110 -14 -172 -31 -295 -8 -60 -19 -148 -25 -195 -6 -47 -37 -229 -70
-405 -60 -328 -99 -555 -121 -705 -8 -58 -12 -250 -13 -610 -1 -507 -1 -528
-23 -608 -30 -114 -81 -228 -146 -325 -48 -73 -106 -141 -106 -125 0 4 9 28
20 54 l21 47 -86 -91 c-118 -125 -221 -199 -186 -134 22 41 10 42 -36 4 -55
-45 -157 -107 -193 -117 l-25 -8 20 23 20 22 -30 -6 c-36 -7 -252 -36 -274
-36 -11 0 -10 -4 5 -15 35 -26 -8 -18 -138 29 -68 24 -132 47 -143 51 -12 4
-4 -8 20 -29 22 -20 37 -36 34 -36 -29 -1 -225 123 -281 178 -32 30 -38 33
-38 17 0 -11 13 -40 30 -65 16 -24 27 -46 25 -48 -7 -7 -227 213 -291 292
-121 148 -175 273 -200 459 -13 96 -13 152 -3 387 16 381 -3 705 -61 1000 -6
30 -17 89 -25 130 -8 41 -16 86 -19 100 -27 135 -152 911 -160 1001 -32 332
-34 503 -7 720 64 514 201 847 439 1071 67 63 112 96 112 83 0 -3 -14 -38 -31
-78 -43 -101 -59 -178 -59 -283 0 -150 43 -232 154 -290 31 -16 56 -32 56 -36
0 -4 -20 -22 -45 -40 -24 -18 -44 -37 -45 -42 0 -5 37 -6 84 -3 l84 6 -41 -39
-42 -39 35 -1 c20 0 67 9 105 19 38 11 71 18 73 16 2 -1 -22 -24 -52 -51 -31
-26 -54 -49 -52 -51 4 -5 178 25 203 34 25 9 -29 -35 -119 -96 -43 -30 -78
-57 -78 -60 0 -8 118 4 175 19 22 5 47 10 55 10 19 0 -72 -61 -174 -117 l-81
-45 70 6 c39 2 104 16 144 30 41 14 77 24 79 22 6 -7 -57 -46 -97 -61 -23 -8
-69 -19 -104 -25 -178 -30 -279 -67 -387 -140 -165 -112 -285 -307 -326 -530
-17 -98 -17 -342 0 -450 15 -87 62 -279 71 -288 3 -3 5 53 6 124 l1 129 18
-125 c9 -69 20 -145 24 -171 3 -25 20 -110 37 -190 76 -361 102 -514 119 -694
12 -130 13 -525 2 -525 -4 0 -9 17 -10 38 -4 77 -14 132 -24 132 -18 0 -3
-451 17 -524 32 -122 135 -286 225 -361 127 -106 401 -187 640 -188 273 -2
566 99 705 242 156 161 196 299 194 676 -1 183 -2 196 -14 150 -7 -27 -14 -76
-14 -107 -1 -37 -5 -58 -13 -58 -8 0 -9 63 -4 248 9 304 13 338 76 632 45 205
101 495 119 617 l19 128 -5 -115 c-3 -63 -3 -112 1 -108 11 9 52 178 66 268 6
41 16 95 21 120 4 25 7 128 5 230 -3 203 -17 276 -76 407 -104 230 -335 401
-595 443 -37 6 -80 17 -95 25 -32 16 -143 106 -138 111 6 6 93 -23 138 -46 23
-12 44 -19 46 -17 3 3 -23 27 -58 55 -72 56 -181 157 -158 146 8 -5 34 -21 58
-37 70 -48 292 -130 292 -108 0 3 -36 28 -80 55 -80 48 -175 124 -166 133 2 2
46 -11 98 -30 104 -39 194 -61 223 -55 15 2 6 12 -40 40 -59 36 -123 93 -114
102 3 3 29 -1 59 -9 81 -20 138 -27 172 -20 35 8 28 18 -25 35 -20 6 -54 27
-74 47 -35 32 -36 35 -19 45 11 6 46 8 85 5 l66 -6 -37 21 c-21 12 -38 25 -38
28 0 3 23 28 51 54 69 65 92 119 95 226 4 113 -28 237 -95 368 -11 23 -21 44
-21 47 0 16 51 -26 137 -112z m-2006 -39 c56 -23 48 -35 -13 -18 -102 27 -196
13 -272 -39 -20 -14 -27 -16 -24 -6 5 17 71 62 113 77 38 14 143 6 196 -14z
m2524 -2 c45 -23 95 -67 95 -83 0 -6 -12 -2 -27 9 -71 50 -199 76 -264 53 -54
-19 -60 5 -8 29 56 25 147 22 204 -8z m-2650 -166 c0 -45 -19 -62 -59 -52 -35
9 -52 45 -36 75 9 18 19 22 53 19 42 -3 42 -3 42 -42z m2577 27 c31 -28 21
-79 -17 -83 -41 -5 -56 1 -67 25 -24 52 41 97 84 58z m2168 -124 c-9 -16 -18
-19 -47 -14 -85 13 -90 20 -23 26 36 3 69 6 73 7 4 1 3 -7 -3 -19z m-3703
-1025 c46 -35 48 -35 56 -16 14 30 71 55 108 47 16 -4 43 -18 59 -32 l30 -25
37 32 c34 30 40 32 91 27 30 -3 62 -13 72 -22 17 -15 21 -15 57 3 21 11 55 23
74 27 33 6 37 4 47 -22 6 -15 14 -41 18 -57 l7 -28 12 29 c18 41 41 48 61 18
24 -37 16 -141 -15 -183 -24 -35 -48 -40 -89 -19 -15 8 -45 22 -67 33 -29 14
-47 33 -65 66 -14 27 -27 48 -30 48 -4 0 -12 -16 -19 -35 -14 -40 -43 -60 -84
-57 -33 3 -78 24 -96 46 -11 13 -15 12 -33 -6 -23 -23 -78 -48 -107 -48 -32 0
-61 32 -70 80 l-8 45 -12 -30 c-41 -101 -56 -116 -125 -122 -22 -2 -44 -7 -50
-12 -6 -5 -21 -12 -34 -16 -20 -6 -25 -1 -43 41 -17 38 -20 60 -16 112 5 72
27 109 45 76 5 -11 13 -39 17 -62 8 -49 17 -46 35 13 7 22 19 53 27 68 18 36
44 32 110 -19z m-377 -210 c-11 -82 -25 -216 -31 -299 -6 -82 -13 -170 -16
-195 l-5 -45 -20 25 c-35 42 -105 201 -121 275 -24 108 -31 223 -17 274 13 50
29 41 31 -19 1 -34 1 -34 16 15 24 79 36 86 48 29 l11 -49 13 68 c10 50 19 70
35 79 11 6 22 11 24 10 9 -7 22 0 22 11 0 7 6 19 13 26 21 21 20 -43 -3 -205z
m1315 137 c7 -15 16 -43 20 -64 12 -64 25 -51 25 25 0 64 2 70 14 53 7 -11 16
-40 20 -65 9 -59 25 -87 27 -45 1 17 1 33 0 38 0 4 3 7 9 7 40 0 47 -178 12
-322 -12 -48 -35 -118 -52 -155 -30 -66 -90 -167 -96 -161 -1 2 -8 93 -14 203
-11 202 -13 226 -30 324 -15 84 -13 167 5 185 20 19 42 11 60 -23z m-1631
-628 c19 -208 107 -789 146 -968 37 -170 85 -702 70 -770 -7 -30 -39 -84 -50
-85 -3 0 -5 91 -5 203 -1 173 -9 276 -30 397 -2 14 -11 66 -19 115 -9 50 -18
99 -20 110 -27 130 -68 325 -80 385 -44 213 -69 614 -50 797 l8 78 12 -97 c6
-53 14 -127 18 -165z m1945 -94 c2 -206 -28 -452 -79 -653 -62 -243 -113 -526
-126 -686 -4 -52 -8 -104 -9 -115 -1 -11 -3 -74 -4 -140 -1 -108 -3 -118 -16
-101 -12 16 -15 56 -15 190 0 149 6 225 35 446 11 83 56 354 70 420 19 93 72
428 85 540 6 52 13 109 15 125 3 17 7 66 11 110 3 44 8 87 12 95 9 23 20 -92
21 -231z m569 -539 c51 -93 81 -199 87 -310 l5 -85 -19 50 c-10 28 -34 84 -53
125 -77 165 -87 188 -122 275 -20 50 -40 110 -43 135 l-6 45 55 -80 c30 -44
73 -114 96 -155z m-1179 47 c-85 -58 -168 -159 -215 -261 -36 -79 -28 -105 13
-45 18 26 83 94 145 153 107 101 151 134 111 82 -109 -142 -150 -202 -180
-264 -19 -40 -32 -76 -28 -80 4 -4 23 13 43 38 53 65 174 190 184 190 5 0 -9
-24 -31 -52 -55 -74 -118 -196 -126 -243 l-6 -40 117 120 c64 66 115 116 113
110 -3 -5 -33 -67 -67 -136 -33 -69 -64 -145 -67 -170 l-6 -44 26 30 c15 17
52 63 82 103 31 40 58 71 60 68 2 -2 -13 -39 -35 -82 -48 -96 -107 -242 -100
-249 13 -14 40 13 78 76 22 38 42 69 44 69 10 0 -19 -104 -55 -195 -38 -98
-43 -135 -21 -135 5 0 24 28 43 63 l34 62 3 -72 c5 -122 -57 -265 -164 -382
-160 -173 -411 -208 -646 -90 -20 10 -63 43 -95 73 -96 89 -144 197 -168 380
-20 149 -19 160 9 101 13 -27 33 -59 46 -70 l22 -20 -4 55 c-3 30 -17 101 -31
157 -15 56 -27 105 -27 109 0 4 18 -19 39 -52 58 -88 90 -123 91 -101 0 10 -5
27 -10 38 -6 10 -28 67 -49 126 -21 60 -42 117 -47 127 -17 42 19 2 72 -81 30
-47 57 -83 59 -81 5 4 -68 205 -86 241 -6 11 -6 17 0 17 10 0 35 -29 111 -128
23 -29 45 -50 51 -47 12 8 -61 146 -113 216 -43 56 -44 59 -23 59 22 0 89 -64
142 -136 26 -35 49 -62 51 -59 2 2 -1 26 -8 54 -14 59 -50 118 -133 220 -34
41 -53 72 -44 68 37 -14 149 -101 175 -135 15 -19 44 -54 65 -76 l37 -41 -21
55 c-38 101 -53 123 -130 202 -43 43 -75 78 -72 78 25 0 133 -83 174 -133 110
-136 134 -241 143 -628 5 -213 21 -405 36 -422 8 -9 29 218 36 378 19 464 51
587 190 729 39 40 155 119 163 111 2 -3 2 -6 0 -8z m-205 -47 c-40 -55 -70
-81 -40 -35 18 29 66 85 73 85 2 0 -13 -22 -33 -50z m-1504 -45 c-16 -47 -64
-163 -106 -258 -43 -94 -93 -212 -111 -262 l-34 -90 5 95 c5 103 18 153 75
275 31 67 187 325 197 325 1 0 -10 -38 -26 -85z m1166 21 l15 -31 -31 35 c-32
36 -41 62 -14 39 8 -7 22 -26 30 -43z m1608 -171 c89 -181 125 -314 126 -462
0 -34 -4 -65 -10 -68 -5 -3 -10 2 -10 12 0 10 -32 110 -70 223 -39 113 -89
266 -110 342 -22 75 -43 144 -46 155 -12 39 69 -98 120 -202z m-2774 -187
c-12 -40 -43 -127 -70 -193 -26 -66 -55 -146 -65 -179 -17 -53 -19 -56 -27
-35 -18 48 18 211 70 314 44 88 101 179 109 172 3 -3 -5 -39 -17 -79z m2688
-83 c56 -112 94 -206 88 -213 -27 -27 -146 213 -146 294 0 28 15 7 58 -81z
m-2628 -116 c-40 -153 -126 -348 -144 -328 -12 14 147 420 159 407 3 -3 -4
-38 -15 -79z m-1909 -184 c-32 -79 -85 -165 -102 -165 -12 0 2 31 71 158 30
56 56 97 58 92 2 -5 -11 -43 -27 -85z m4518 -32 c36 -73 93 -241 88 -257 -2
-5 -15 19 -29 55 -15 35 -51 117 -82 182 -31 65 -56 121 -56 125 0 19 52 -49
79 -105z m1897 -117 l15 -40 -26 24 c-16 15 -36 57 -55 117 -17 51 -30 97 -29
101 0 10 77 -153 95 -202z m-5011 60 c8 -18 35 -102 60 -185 25 -84 49 -160
52 -169 4 -12 3 -14 -5 -7 -25 23 -96 230 -126 368 -9 37 2 34 19 -7z m-1285
-38 c-11 -29 -40 -82 -64 -118 -44 -64 -136 -162 -136 -146 0 5 35 59 78 120
43 61 90 130 103 153 33 59 43 54 19 -9z m1744 -88 c-26 -49 -58 -100 -72
-112 l-25 -23 18 35 c43 86 119 212 123 202 2 -7 -18 -52 -44 -102z m4355 -52
c22 -46 63 -121 90 -167 28 -46 49 -87 45 -90 -8 -9 -81 72 -104 117 -20 39
-80 199 -80 214 0 20 12 1 49 -74z m-5924 -30 c-8 -18 -28 -67 -46 -108 -17
-41 -63 -132 -100 -202 -38 -69 -69 -129 -69 -133 0 -3 17 7 38 22 46 34 273
232 289 253 11 13 12 13 13 0 0 -25 -96 -185 -166 -277 -59 -78 -73 -103 -58
-103 3 0 69 49 147 110 77 60 142 108 144 106 6 -5 -102 -174 -188 -294 -42
-59 -73 -108 -68 -110 5 -2 39 23 76 55 38 32 95 79 127 103 33 25 86 69 118
99 32 29 58 49 58 44 0 -5 -72 -97 -160 -204 -88 -107 -160 -198 -160 -202 0
-13 69 38 149 111 88 79 211 176 211 165 0 -20 -190 -277 -290 -393 -31 -36
-105 -129 -164 -207 -94 -124 -126 -159 -126 -138 0 3 28 73 61 157 73 183
101 260 95 266 -3 2 -65 -54 -138 -125 -126 -122 -218 -202 -218 -189 0 4 24
46 54 94 53 87 266 498 266 514 0 4 -46 -43 -102 -104 -149 -163 -311 -318
-322 -307 -2 2 29 63 70 134 99 173 167 311 162 327 -3 8 -40 -20 -94 -73
-110 -105 -182 -164 -213 -174 -19 -6 -13 7 38 71 34 44 88 115 119 159 31 44
93 122 138 175 109 129 291 366 299 390 4 11 10 20 16 20 5 0 2 -15 -6 -32z
m3529 -8 c4 -25 3 -31 -4 -20 -5 8 -10 26 -10 39 0 32 6 24 14 -19z m-1291 0
c-5 -20 -23 -38 -23 -23 1 22 13 52 20 48 5 -3 6 -14 3 -25z m-2388 -52 c-48
-94 -134 -215 -183 -256 -45 -38 -160 -115 -212 -142 l-25 -13 20 24 c124 144
416 452 422 445 3 -2 -8 -28 -22 -58z m4337 4 c35 -52 64 -112 72 -147 7 -30
-6 -11 -86 133 -34 60 -23 71 14 14z m-2578 -69 c-7 -31 -84 -156 -91 -149
-11 10 77 176 93 176 2 0 2 -12 -2 -27z m4258 -105 c21 -56 38 -106 38 -111 0
-17 -39 40 -58 84 -19 44 -38 149 -25 136 3 -4 23 -53 45 -109z m-3630 -48
c31 -65 56 -100 104 -146 l64 -60 -10 -85 c-5 -46 -10 -85 -10 -86 0 -13 -29
5 -70 43 -28 26 -50 41 -50 35 0 -15 36 -87 62 -123 22 -32 20 -33 -25 -14
-46 19 -112 98 -139 165 -18 47 -22 76 -22 176 0 104 3 128 24 180 23 55 25
58 28 30 2 -16 22 -68 44 -115z m1367 75 c66 -203 -19 -459 -168 -504 -56 -16
-67 -15 -49 7 16 18 58 90 58 98 0 3 -17 -7 -37 -21 -57 -38 -61 -35 -65 52
l-3 76 49 46 c89 85 175 223 176 284 0 46 16 30 39 -38z m2134 -162 c75 -135
81 -147 68 -139 -40 25 -153 236 -127 236 2 0 29 -44 59 -97z m-1563 16 c23
-32 37 -59 32 -59 -10 0 -92 108 -92 122 0 18 20 -3 60 -63z m-2520 15 c-13
-36 -72 -124 -83 -124 -9 0 25 68 61 122 28 44 38 44 22 2z m3787 -182 c53
-123 83 -232 83 -299 0 -64 -13 -69 -29 -10 -28 109 -102 383 -106 395 -2 6
-1 12 3 12 4 0 26 -44 49 -98z m-1271 -48 c4 -16 4 -27 1 -24 -11 10 -77 132
-77 143 0 19 69 -89 76 -119z m984 -23 c30 -140 29 -138 42 -254 8 -76 8 -128
1 -180 -11 -75 -42 -169 -68 -203 -13 -17 -13 -14 -7 36 9 70 9 422 0 610 -7
157 -2 155 32 -9z m1106 -14 c35 -71 62 -132 59 -135 -9 -9 -46 32 -68 73 -28
56 -78 207 -66 199 6 -3 40 -65 75 -137z m191 -21 c66 -87 93 -132 93 -154 0
-11 -70 61 -120 123 -43 54 -111 173 -110 192 1 11 50 -47 137 -161z m-5846
97 c-5 -10 -22 -47 -39 -83 -40 -89 -112 -208 -168 -281 -56 -73 -394 -367
-394 -343 0 12 50 94 93 154 22 30 121 138 221 240 100 102 204 217 231 257
28 40 54 72 58 73 4 0 3 -8 -2 -17z m2020 -63 l33 -40 26 29 c53 57 128 48
164 -20 l19 -35 31 33 c22 25 42 36 72 40 49 6 78 -7 103 -49 l19 -30 12 36
c14 45 44 66 90 66 48 0 78 -23 86 -66 14 -77 -37 -164 -95 -164 -26 0 -34 7
-55 47 l-24 48 -15 -37 c-20 -49 -71 -81 -116 -74 -46 7 -80 32 -96 69 -8 19
-14 25 -15 15 0 -10 -13 -32 -29 -50 -25 -28 -36 -33 -74 -33 -52 0 -94 25
-117 72 l-16 30 -16 -38 c-31 -73 -108 -61 -140 21 -23 62 -22 112 3 144 17
22 28 26 69 26 45 0 52 -3 81 -40z m3459 -76 c64 -118 96 -203 104 -274 l6
-55 -31 60 c-18 33 -53 121 -79 195 -26 74 -51 143 -55 153 -4 9 -5 17 -2 17
3 0 28 -43 57 -96z m-5280 17 c-78 -280 -96 -329 -158 -425 -65 -102 -189
-253 -273 -330 -126 -117 -146 -113 -39 8 114 129 200 265 352 556 30 58 70
140 89 182 19 43 37 78 41 78 4 0 -2 -31 -12 -69z m4523 -196 c2 -100 -1 -127
-18 -160 l-19 -40 -7 70 c-11 119 -10 321 3 352 11 27 12 26 25 -37 8 -36 15
-119 16 -185z m-3146 73 c24 -32 62 -72 84 -90 48 -38 44 -46 -9 -19 -49 25
-105 89 -136 156 -36 77 -42 107 -10 55 15 -25 47 -71 71 -102z m2807 -53 c15
-153 16 -188 7 -261 -5 -44 -19 -105 -30 -135 -21 -56 -79 -155 -86 -147 -2 2
5 37 16 78 38 146 51 258 51 460 l1 195 18 -70 c10 -38 20 -92 23 -120z m1002
-84 c27 -81 35 -206 20 -308 -9 -59 -26 -72 -26 -20 0 35 -60 375 -85 485 -8
35 -15 69 -14 75 1 20 78 -151 105 -232z m-2371 182 c-20 -47 -58 -98 -110
-145 -58 -55 -64 -47 -10 14 25 28 64 78 87 110 22 32 43 58 45 58 2 0 -4 -17
-12 -37z m-3050 -100 c-126 -290 -221 -410 -440 -554 -170 -112 -189 -113 -60
-2 146 127 345 364 480 575 28 43 53 78 56 78 4 0 -12 -44 -36 -97z m339 55
c-24 -152 -96 -336 -170 -434 -49 -65 -166 -195 -170 -191 -2 2 21 45 51 96
64 106 207 381 256 493 19 43 35 78 37 78 1 0 -1 -19 -4 -42z m3895 -265 c1
-74 -5 -150 -14 -194 -16 -73 -61 -189 -75 -189 -4 0 1 46 11 103 24 133 47
300 56 412 7 88 7 89 14 40 4 -27 8 -105 8 -172z m987 76 c20 -119 15 -242
-14 -323 -28 -76 -47 -97 -38 -41 4 22 9 141 13 264 3 135 9 218 14 209 5 -8
16 -58 25 -109z m-6625 -56 c-43 -86 -103 -165 -115 -152 -4 4 153 249 160
249 2 0 -18 -44 -45 -97z m1861 -9 c-62 -212 -120 -318 -231 -421 -70 -64 -86
-73 -53 -26 30 43 193 335 251 452 29 57 54 101 57 99 2 -3 -9 -49 -24 -104z
m1490 52 c146 -29 265 -38 445 -33 122 3 196 10 237 21 33 9 64 15 70 12 18
-6 -42 -26 -144 -49 -128 -28 -409 -30 -515 -4 -89 23 -184 57 -192 70 -4 6 0
8 10 4 9 -3 49 -13 89 -21z m3117 -211 c-3 -107 -14 -164 -47 -235 l-21 -45 6
80 c2 44 13 139 24 210 10 72 19 135 20 140 0 6 5 -3 10 -20 5 -16 9 -75 8
-130z m-6344 -3 c-59 -116 -125 -205 -140 -190 -3 3 4 23 16 44 38 68 182 284
187 280 2 -3 -26 -63 -63 -134z m5315 -117 c-12 -78 -60 -227 -96 -295 l-23
-45 -1 56 c0 37 12 93 34 165 43 137 63 214 71 284 3 30 9 64 13 75 12 34 13
-166 2 -240z m1964 85 c42 -82 73 -172 80 -230 l5 -45 -19 24 c-10 14 -23 43
-30 65 -7 23 -27 79 -45 126 -36 94 -54 165 -35 140 6 -8 26 -44 44 -80z
m-118 -128 c27 -79 42 -197 30 -229 -7 -16 -8 -16 -16 -2 -6 9 -23 79 -40 155
-16 77 -36 166 -44 199 -9 33 -15 65 -15 70 1 17 58 -113 85 -193z m-5335 94
c-33 -90 -77 -169 -110 -200 -17 -17 -31 -27 -31 -24 0 6 120 234 140 265 23
36 23 18 1 -41z m3308 -74 c-12 -37 -32 -88 -45 -113 -25 -50 -140 -199 -154
-199 -21 0 15 81 88 197 44 70 91 153 104 183 21 50 23 52 26 27 2 -15 -7 -58
-19 -95z m1034 36 c-5 -52 -36 -159 -55 -188 -13 -21 -3 51 24 161 23 96 39
110 31 27z m1368 -130 c31 -56 -78 31 -117 94 -13 21 -24 41 -24 45 0 10 129
-117 141 -139z m-7336 96 c-29 -69 -105 -184 -105 -159 0 19 104 195 115 195
3 0 -2 -16 -10 -36z m1813 -314 l-3 -65 -13 40 c-17 49 -27 223 -17 262 7 22
11 8 22 -72 7 -55 12 -129 11 -165z m5038 144 c9 -39 12 -79 8 -98 -7 -30 -8
-29 -25 28 -10 32 -20 88 -24 125 -6 63 -5 65 10 39 8 -15 22 -57 31 -94z
m-4852 -204 c8 -36 17 -81 20 -100 l6 -35 -24 29 c-13 16 -31 54 -40 85 -16
60 -47 239 -45 268 1 24 64 -164 83 -247z m250 -164 c46 -76 46 -89 0 -45 -56
53 -91 110 -119 192 -39 117 -30 121 29 12 29 -55 70 -127 90 -159z"/>
<path d="M4750 8283 c0 -4 28 -42 61 -83 34 -41 84 -106 111 -143 28 -37 53
-66 56 -63 13 14 -75 164 -127 217 -55 54 -101 88 -101 72z"/>
<path d="M5639 8261 c-85 -42 -139 -83 -210 -159 -45 -47 -72 -85 -83 -117 -9
-27 -14 -50 -12 -52 3 -4 124 119 190 194 21 23 71 68 112 99 98 75 99 82 3
35z"/>
<path d="M4460 8257 c0 -14 319 -262 327 -254 2 3 -23 37 -56 76 -79 90 -207
181 -256 181 -8 0 -15 -2 -15 -3z"/>
<path d="M4640 8233 c29 -38 240 -253 240 -246 0 12 -54 99 -86 140 -34 41
-148 133 -166 133 -5 0 0 -12 12 -27z"/>
<path d="M5351 8180 c-99 -97 -153 -194 -198 -350 -11 -37 67 67 115 153 29
52 75 129 103 172 27 42 48 79 46 82 -3 2 -32 -24 -66 -57z"/>
<path d="M5765 8205 c-93 -53 -154 -111 -182 -172 -14 -30 -23 -56 -20 -59 2
-2 28 19 58 47 30 28 94 89 143 135 49 46 82 84 75 84 -8 0 -41 -16 -74 -35z"/>
<path d="M4285 8180 c11 -12 62 -51 114 -88 162 -115 177 -121 148 -65 -28 52
-100 104 -208 148 -75 30 -77 30 -54 5z"/>
<path d="M5965 8146 c-65 -21 -137 -61 -188 -106 -44 -39 -84 -96 -74 -106 2
-3 46 26 96 64 50 38 119 84 152 103 33 19 67 39 77 46 16 11 15 12 -3 12 -11
0 -38 -6 -60 -13z"/>
<path d="M4040 8131 c0 -6 7 -11 14 -11 23 0 160 -65 208 -98 24 -16 60 -47
81 -67 21 -20 41 -35 44 -32 10 10 -45 93 -84 127 -20 18 -60 43 -88 56 -57
25 -175 42 -175 25z"/>
<path d="M6113 8080 c-74 -19 -137 -48 -185 -83 -45 -33 -32 -39 29 -12 64 29
251 85 281 85 34 0 34 17 1 24 -41 8 -43 8 -126 -14z"/>
<path d="M3745 8016 c-5 -3 -23 -8 -40 -12 -22 -5 5 -11 103 -20 188 -18 270
-48 397 -144 37 -28 69 -49 71 -47 8 8 -56 96 -88 121 -19 14 -70 42 -114 63
-76 36 -84 37 -199 40 -66 1 -124 1 -130 -1z"/>
<path d="M6455 7916 l-70 -22 165 3 c91 2 185 7 210 10 l45 6 -50 13 c-84 21
-220 16 -300 -10z"/>
<path d="M3305 7872 l-50 -17 135 -6 c137 -6 196 -15 217 -31 7 -5 14 -5 17 0
16 27 -121 72 -214 71 -30 0 -77 -8 -105 -17z"/>
<path d="M6583 7828 c-29 -6 -53 -14 -53 -17 0 -3 33 -7 73 -8 39 0 143 -13
230 -27 87 -14 163 -26 169 -26 25 0 -43 40 -103 61 -75 25 -233 34 -316 17z"/>
<path d="M3270 7764 c-60 -12 -170 -48 -170 -56 0 -5 12 -7 28 -4 27 5 263 24
357 29 l50 2 -30 14 c-30 14 -187 24 -235 15z"/>
<path d="M3108 7580 c-26 -5 -71 -19 -100 -33 l-53 -25 34 -1 c45 -1 251 48
251 60 0 11 -65 10 -132 -1z"/>
<path d="M6892 7584 c4 -3 66 -26 140 -50 73 -25 157 -59 187 -75 29 -17 55
-28 57 -26 9 9 -83 79 -142 108 -33 17 -89 34 -125 39 -73 11 -125 13 -117 4z"/>
<path d="M7024 7422 c4 -7 15 -12 24 -12 10 0 53 -21 97 -46 84 -48 155 -78
155 -66 0 15 -76 80 -117 101 -49 24 -171 42 -159 23z"/>
<path d="M2966 7395 c-78 -32 -91 -45 -42 -45 38 0 183 44 201 61 20 20 -100
8 -159 -16z"/>
<path d="M2438 7089 c-102 -76 -172 -159 -208 -246 -17 -41 -29 -78 -26 -81 3
-3 7 -3 9 -1 1 2 23 36 48 74 49 74 139 179 224 257 67 63 38 61 -47 -3z"/>
<path d="M2468 6946 c-78 -67 -124 -124 -177 -217 -42 -75 -39 -81 11 -23 24
27 75 83 113 124 71 75 141 168 133 176 -3 2 -39 -25 -80 -60z"/>
<path d="M7760 6882 c0 -4 16 -34 35 -66 19 -32 69 -119 111 -193 42 -74 78
-132 81 -130 7 8 -28 139 -50 182 -33 67 -96 151 -138 184 -21 18 -39 28 -39
23z"/>
<path d="M2615 6749 c-84 -80 -185 -221 -223 -314 l-13 -30 33 36 c18 19 47
51 64 70 35 39 170 218 199 262 28 44 0 32 -60 -24z"/>
<path d="M3327 6730 c-50 -19 -245 -140 -246 -152 -2 -17 131 40 194 84 133
92 142 103 52 68z"/>
<path d="M3640 6716 c-63 -46 -175 -154 -168 -161 11 -11 92 46 161 113 89 88
92 111 7 48z"/>
<path d="M6460 6743 c0 -21 89 -109 144 -142 57 -34 185 -85 193 -77 3 2 -10
12 -29 22 -18 9 -63 38 -99 65 -37 26 -93 62 -125 80 -33 18 -65 39 -71 47 -7
9 -13 11 -13 5z"/>
<path d="M3684 6638 c-101 -104 -151 -168 -131 -168 31 0 149 124 212 223 31
49 1 28 -81 -55z"/>
<path d="M7710 6705 c0 -9 230 -399 244 -412 2 -2 0 18 -5 44 -11 63 -66 169
-137 267 -51 70 -102 121 -102 101z"/>
<path d="M6849 6663 c32 -60 160 -123 259 -130 l67 -4 -40 22 c-50 28 -275
129 -287 129 -5 0 -4 -8 1 -17z"/>
<path d="M3325 6624 c-27 -24 -98 -77 -157 -116 -60 -39 -108 -74 -108 -78 0
-13 88 9 141 36 29 14 73 48 98 74 45 47 99 130 84 130 -4 -1 -30 -21 -58 -46z"/>
<path d="M2565 6519 c-60 -55 -119 -149 -154 -243 -40 -108 -18 -83 132 147
53 81 92 147 87 147 -4 0 -34 -23 -65 -51z"/>
<path d="M7640 6545 c0 -13 72 -107 176 -231 56 -67 108 -132 115 -145 7 -13
14 -19 16 -12 5 15 -41 106 -85 168 -63 87 -222 244 -222 220z"/>
<path d="M6899 6467 c40 -42 121 -87 210 -116 81 -26 89 -26 65 1 -18 20 -233
129 -284 143 -24 7 -23 6 9 -28z"/>
<path d="M3280 6414 c-47 -35 -118 -89 -157 -120 -82 -62 -91 -80 -37 -71 50
8 150 76 221 150 117 122 104 142 -27 41z"/>
<path d="M2694 6423 c-63 -43 -105 -82 -172 -162 -63 -75 -137 -189 -128 -198
9 -9 142 126 214 217 41 52 88 110 105 127 40 42 31 49 -19 16z"/>
<path d="M3463 6382 c-61 -44 -182 -142 -238 -193 -22 -20 -58 -52 -80 -72
-46 -42 -38 -45 39 -16 99 37 227 146 303 259 19 28 33 53 31 55 -2 2 -26 -13
-55 -33z"/>
<path d="M7710 6253 c0 -16 173 -283 212 -328 12 -14 -20 93 -43 140 -29 61
-169 217 -169 188z"/>
<path d="M2664 6181 c-69 -45 -116 -93 -173 -175 -39 -56 -105 -208 -99 -227
2 -5 25 27 51 71 70 117 185 268 246 323 64 57 55 60 -25 8z"/>
<path d="M7636 6165 c20 -52 202 -345 214 -345 11 0 -7 85 -26 122 -41 82
-210 282 -188 223z"/>
<path d="M2657 5989 c-96 -67 -193 -206 -236 -338 -12 -35 -19 -66 -18 -68 2
-2 49 65 105 149 55 84 128 186 162 226 33 39 57 72 53 71 -4 0 -34 -18 -66
-40z"/>
<path d="M6880 5763 c0 -5 23 -37 51 -73 28 -36 76 -99 107 -140 65 -87 79
-78 31 18 -45 89 -189 238 -189 195z"/>
<path d="M7114 5748 c8 -13 39 -59 68 -104 29 -44 89 -149 133 -233 44 -83 81
-147 83 -142 8 23 -31 143 -77 238 -40 82 -65 118 -127 182 -74 79 -110 104
-80 59z"/>
<path d="M2052 5733 c-21 -31 -57 -121 -51 -127 2 -2 23 31 46 75 42 76 44
108 5 52z"/>
<path d="M2647 5724 c-62 -73 -190 -334 -173 -351 11 -12 192 301 211 365 9
31 -5 26 -38 -14z"/>
<path d="M3004 5670 c-33 -33 -73 -83 -89 -111 -28 -52 -59 -149 -47 -149 4 1
21 23 37 50 17 28 61 95 98 150 38 55 67 104 65 110 -1 5 -30 -17 -64 -50z"/>
<path d="M7720 5655 c0 -27 176 -342 186 -333 6 7 -30 106 -64 173 -45 89
-122 190 -122 160z"/>
<path d="M3069 5549 c-50 -52 -142 -185 -177 -254 -45 -89 -74 -207 -80 -327
-4 -65 -5 -118 -2 -118 4 0 12 28 19 63 34 169 126 388 244 580 36 59 61 107
54 107 -6 0 -32 -23 -58 -51z"/>
<path d="M2629 5478 c-43 -55 -82 -125 -106 -192 -18 -53 -45 -178 -38 -184 5
-5 152 296 186 381 10 26 14 47 9 47 -5 0 -28 -23 -51 -52z"/>
<path d="M6860 5501 c0 -5 5 -13 11 -17 24 -14 169 -248 236 -381 39 -76 94
-201 123 -278 29 -77 56 -144 62 -150 17 -17 -2 142 -28 235 -27 95 -97 246
-145 317 -83 120 -259 307 -259 274z"/>
<path d="M7670 5487 c0 -4 20 -47 44 -95 25 -48 67 -134 94 -192 73 -154 84
-165 61 -58 -18 85 -57 178 -101 241 -28 41 -98 114 -98 104z"/>
<path d="M3286 5277 c-42 -52 -80 -131 -107 -224 -25 -88 -23 -100 5 -38 13
28 41 80 64 117 37 60 69 124 85 171 11 30 -10 18 -47 -26z"/>
<path d="M7268 5243 c16 -32 42 -95 57 -140 15 -46 30 -83 33 -83 10 0 -9 112
-29 165 -20 55 -62 115 -80 115 -5 0 4 -26 19 -57z"/>
<path d="M7560 5274 c0 -8 186 -383 194 -391 2 -2 -1 20 -6 49 -19 106 -96
264 -157 322 -17 17 -31 26 -31 20z"/>
<path d="M2682 5198 c-50 -54 -99 -283 -85 -400 8 -65 17 -44 33 74 10 75 58
287 75 331 9 23 3 22 -23 -5z"/>
<path d="M3617 5090 c-55 -84 -117 -261 -117 -331 1 -30 5 -25 36 46 44 99
107 282 101 298 -2 6 -11 1 -20 -13z"/>
<path d="M7564 4973 c19 -55 44 -149 56 -209 13 -60 27 -113 31 -118 14 -16
10 133 -6 207 -15 70 -64 174 -96 203 -15 14 -13 0 15 -83z"/>
<path d="M7514 4783 c4 -10 11 -67 17 -128 10 -111 25 -215 33 -222 10 -10 18
113 11 175 -8 75 -43 192 -57 192 -6 0 -7 -8 -4 -17z"/>
<path d="M6057 6720 c8 -29 58 -80 79 -80 13 0 5 13 -31 50 -27 28 -50 50 -51
50 -1 0 0 -9 3 -20z"/>
<path d="M6059 6588 c29 -35 77 -96 108 -135 30 -40 57 -73 59 -73 9 0 -38
106 -63 143 -27 39 -129 127 -146 127 -5 0 14 -28 42 -62z"/>
<path d="M4185 6398 c-26 -14 -85 -70 -85 -81 0 -12 57 24 87 55 29 31 28 42
-2 26z"/>
<path d="M6090 6393 c0 -9 112 -123 121 -123 20 0 -10 46 -56 85 -51 44 -65
52 -65 38z"/>
<path d="M4255 6326 c-83 -55 -152 -124 -191 -187 -20 -33 -33 -63 -29 -67 7
-7 249 238 266 270 13 24 12 23 -46 -16z"/>
<path d="M4454 6299 c-44 -21 -136 -109 -115 -109 8 0 45 21 83 47 110 76 128
109 32 62z"/>
<path d="M5981 6271 c8 -11 59 -68 115 -128 56 -60 109 -121 119 -136 28 -44
29 -24 1 32 -34 65 -134 182 -190 221 -51 35 -64 38 -45 11z"/>
<path d="M5840 6183 c0 -5 36 -33 80 -63 45 -30 86 -60 92 -67 6 -7 15 -13 20
-13 15 0 -25 60 -57 84 -52 40 -135 76 -135 59z"/>
<path d="M4380 6163 c-19 -10 -57 -40 -83 -66 -85 -87 -38 -68 86 35 60 49 59
61 -3 31z"/>
<path d="M4067 5961 c-48 -51 -80 -112 -75 -144 2 -12 19 7 55 60 46 68 79
133 69 133 -2 0 -24 -22 -49 -49z"/>
<path d="M6090 5981 c0 -5 20 -36 45 -69 44 -59 75 -91 75 -78 0 12 -32 70
-57 103 -25 34 -63 61 -63 44z"/>
<path d="M4370 2432 c0 -14 137 -142 194 -181 206 -142 565 -190 839 -112 138
40 318 141 392 221 17 18 26 31 20 29 -5 -2 -59 -24 -120 -48 -220 -87 -415
-122 -638 -114 -259 10 -473 73 -659 197 -16 10 -28 14 -28 8z"/>
<path d="M4710 3433 c0 -20 54 -84 98 -117 69 -50 147 -84 213 -92 82 -9 80 8
-4 40 -71 28 -211 106 -274 153 -18 13 -33 20 -33 16z"/>
<path d="M5478 3396 c-25 -23 -79 -60 -120 -82 -64 -34 -70 -39 -46 -42 56 -7
171 68 211 137 25 42 11 38 -45 -13z"/>
</g>
</svg>
