<svg width="40" height="40" viewBox="0 0 40 40" fill="none" xmlns="http://www.w3.org/2000/svg">
<circle cx="20" cy="20" r="19.5" fill="#0686CE" stroke="#E8E8E8"/>
<g clip-path="url(#clip0_2274_4839)">
<path d="M23.3414 19.0091C25.5198 18.5544 26.7769 16.5066 26.9012 15.0188C24.7243 13.2504 21.8675 15.1547 21.1875 16.2432C21.1875 16.2432 20.6471 16.244 19.9711 16.3041C19.9711 16.2954 19.97 16.2874 19.97 16.2786C19.9719 15.963 20.0433 15.5831 20.3378 15.1208C20.6343 14.6605 21.1723 14.1117 22.1433 13.5453C23.1803 12.9396 24.1822 12.2361 24.9634 11.4231C25.3539 11.0149 25.69 10.5777 25.9375 10.097C26.1838 9.61798 26.34 9.08793 26.34 8.52995C26.34 8.17084 26.2742 7.8042 26.1399 7.45024C25.9383 6.91737 25.7095 6.57739 25.2281 6.11308C24.7446 5.648 23.5334 5.02345 22.3832 4.66035C21.6128 4.41725 21.4701 4.93255 22.0149 5.32597C22.8463 5.92618 23.5454 6.41443 24.1576 7.19639C24.3226 7.40723 24.5465 7.85281 24.6131 8.02818C24.6797 8.20432 24.7068 8.36572 24.7076 8.52995C24.7072 8.78225 24.6382 9.05163 24.4851 9.35176C24.3584 9.60085 24.0555 9.98983 23.8176 10.2573C23.7354 10.3493 23.8427 10.8109 23.7494 10.9038C23.6992 10.7072 22.2648 8.91694 20.9607 8.62484C20.3147 8.48018 20.2294 8.89704 20.7906 9.23703C22.0731 10.0142 22.0831 10.5634 22.107 10.9381C22.113 11.0297 22.0859 11.1489 21.9791 11.337C21.8723 11.5235 21.5793 11.8783 21.2342 12.1657C21.1776 12.2135 20.8209 12.41 20.7803 12.4682C19.7209 13.1082 19.4112 13.5447 18.9653 14.2377C18.4982 14.9595 18.3352 15.6841 18.3376 16.2787C18.3376 16.3836 18.3439 16.4824 18.3523 16.5789C18.1554 16.6359 17.9721 16.7016 17.8174 16.7801C17.8174 16.7801 13.3501 19.9008 13.242 20.1173C13.1336 20.334 12.484 22.1738 12.484 22.1738C12.484 22.1738 8.1541 25.2048 7.82969 25.5296C7.50489 25.8544 10.8603 29.2103 11.6179 28.9938C12.3756 28.777 17.5145 27.5861 17.5145 27.5861L19.2825 32.976H30.0299L23.3414 19.0091Z" fill="#4B4B4B"/>
</g>
<defs>
<clipPath id="clip0_2274_4839">
<rect width="28.3784" height="28.3784" fill="white" transform="translate(4.72949 4.59766)"/>
</clipPath>
</defs>
</svg>
