<svg width="40" height="41" viewBox="0 0 40 41" fill="none" xmlns="http://www.w3.org/2000/svg">
<circle cx="20" cy="20.1133" r="19.5" fill="#DC2626" stroke="#E8E8E8"/>
<g clip-path="url(#clip0_2274_4833)">
<path d="M35.4444 17.7012C35.4444 17.7012 34.1159 15.9783 33.8815 15.6789C33.6471 15.3796 33.1782 13.9565 32.397 13.5824C32.1529 13.4656 31.4214 13.2316 30.5112 12.9609C30.461 12.5933 30.1368 12.3092 29.74 12.3092C29.5056 12.3092 29.2982 12.4099 29.1549 12.5666C27.4026 12.0664 25.5467 11.567 25.2077 11.4853C24.5825 11.3355 21.8479 10.5116 20.9103 10.5116C19.9726 10.5116 15.5967 10.1375 14.3462 9.91287C13.0961 9.68819 5.51636 11.036 7.39127 19.9472C7.39127 21.0709 7.54769 28.2596 7.54769 28.4842C7.54769 28.7089 7.54769 28.7089 7.54769 28.7089C7.54769 28.7089 10.5955 28.7089 11.3768 28.7089C12.1584 28.7089 11.846 28.2596 11.846 28.2596H13.3301C13.3301 28.2596 13.7205 27.5109 13.3301 27.2863C12.9397 27.0616 12.002 26.163 12.002 26.163C12.002 26.163 13.2517 23.4672 13.565 23.2426C13.8773 23.0176 14.9715 21.2951 14.9715 21.2951H18.7217C18.7217 21.2951 17.9405 25.1897 17.706 25.938C17.4716 26.6875 17.3937 28.1848 17.7845 28.559C18.1753 28.9336 20.1286 28.559 20.8318 28.559C21.5351 28.559 21.5355 27.9602 21.1447 27.5857C20.7538 27.2115 20.5194 26.2382 21.3791 25.1897C21.3791 25.1897 23.254 28.1849 23.6448 28.559C24.0356 28.9336 24.4261 29.0835 25.2857 29.0835C26.1458 29.0835 27.7083 29.0835 28.3335 29.0835C28.9588 29.0835 29.4276 28.1849 28.7244 27.8855C28.0207 27.5857 26.6142 26.5376 26.6142 26.5376C26.6142 26.5376 25.1298 23.0927 25.1298 22.5682C25.1298 22.0445 25.833 19.0486 25.833 19.0486C25.833 19.0486 29.7363 18.6207 30.1309 18.6744C31.2246 18.8243 33.0219 18.3751 34.3503 18.8239C35.1017 19.0781 35.6008 18.2248 35.4444 17.7012Z" fill="#4B4B4B"/>
</g>
<defs>
<clipPath id="clip0_2274_4833">
<rect width="28.3784" height="27.1959" fill="white" transform="translate(7.09473 5.89062)"/>
</clipPath>
</defs>
</svg>
