<svg width="40" height="40" viewBox="0 0 40 40" fill="none" xmlns="http://www.w3.org/2000/svg">
<circle cx="20" cy="20" r="19.5" fill="#FFFF00" stroke="#E8E8E8"/>
<g clip-path="url(#clip0_2274_4845)">
<path d="M29.9243 12.4129C27.0449 11.1248 23.552 9.98555 21.7313 9.75797C20.2627 9.57442 15.359 11.5787 15.359 11.5787C15.359 11.5787 14.5131 10.3438 13.8801 10.5545C13.2472 10.7657 12.6836 11.2876 11.4176 12.9757C8.44526 16.9388 3.54688 18.3736 3.54688 18.3736L6.18413 21.855L8.19901 21.2051C7.80872 19.713 8.083 18.7955 8.083 18.7955C8.29418 19.6396 9.45474 20.8002 9.45474 20.8002L9.66544 21.6438L6.92287 22.5933L7.76651 23.6485C7.76651 23.6485 10.0877 23.3321 12.6196 23.0156C15.1514 22.6991 15.6786 24.8087 15.6786 24.8087L16.7338 30.1893H18.8434L19.6876 25.4417H29.2879L30.3426 30.1893H32.6634C32.6634 30.1893 33.8302 24.93 34.2484 19.3542C34.5898 14.8025 32.8074 13.7028 29.9243 12.4129Z" fill="#4B4B4B"/>
</g>
<defs>
<clipPath id="clip0_2274_4845">
<rect width="30.7432" height="30.7432" fill="white" transform="translate(3.54688 4.59766)"/>
</clipPath>
</defs>
</svg>
